<mxfile host="app.diagrams.net" modified="2023-10-12T08:22:46.384Z" agent="Mozilla/5.0 (Windows NT 10.0; Win64; x64) AppleWebKit/537.36 (KHTML, like Gecko) Chrome/117.0.0.0 Safari/537.36" etag="6MUJr15N2RCY8uO1GGYd" version="22.0.4" type="device">
  <diagram name="Page-1" id="VYX3LGDkoKHxSErqsymX">
    <mxGraphModel dx="593" dy="643" grid="1" gridSize="10" guides="1" tooltips="1" connect="1" arrows="1" fold="1" page="1" pageScale="1" pageWidth="827" pageHeight="1169" math="0" shadow="0">
      <root>
        <mxCell id="0" />
        <mxCell id="1" parent="0" />
        <mxCell id="ZdzDDIdJYCtwSN7JUISU-102" value="" style="group" vertex="1" connectable="0" parent="1">
          <mxGeometry x="280" y="1000" width="240" height="240" as="geometry" />
        </mxCell>
        <mxCell id="ZdzDDIdJYCtwSN7JUISU-103" value="" style="rounded=0;whiteSpace=wrap;html=1;" vertex="1" parent="ZdzDDIdJYCtwSN7JUISU-102">
          <mxGeometry width="240" height="240" as="geometry" />
        </mxCell>
        <mxCell id="ZdzDDIdJYCtwSN7JUISU-104" value="" style="endArrow=none;html=1;rounded=0;" edge="1" parent="ZdzDDIdJYCtwSN7JUISU-102">
          <mxGeometry width="50" height="50" relative="1" as="geometry">
            <mxPoint x="40" y="240" as="sourcePoint" />
            <mxPoint x="40" y="200" as="targetPoint" />
          </mxGeometry>
        </mxCell>
        <mxCell id="ZdzDDIdJYCtwSN7JUISU-105" value="" style="endArrow=none;html=1;rounded=0;" edge="1" parent="ZdzDDIdJYCtwSN7JUISU-102">
          <mxGeometry width="50" height="50" relative="1" as="geometry">
            <mxPoint x="80" y="200" as="sourcePoint" />
            <mxPoint x="80" y="160" as="targetPoint" />
          </mxGeometry>
        </mxCell>
        <mxCell id="ZdzDDIdJYCtwSN7JUISU-106" value="" style="endArrow=none;html=1;rounded=0;" edge="1" parent="ZdzDDIdJYCtwSN7JUISU-102">
          <mxGeometry width="50" height="50" relative="1" as="geometry">
            <mxPoint x="80" y="160" as="sourcePoint" />
            <mxPoint x="120" y="160" as="targetPoint" />
          </mxGeometry>
        </mxCell>
        <mxCell id="ZdzDDIdJYCtwSN7JUISU-107" value="" style="endArrow=none;html=1;rounded=0;" edge="1" parent="ZdzDDIdJYCtwSN7JUISU-102">
          <mxGeometry width="50" height="50" relative="1" as="geometry">
            <mxPoint x="120" y="160" as="sourcePoint" />
            <mxPoint x="120" y="120" as="targetPoint" />
          </mxGeometry>
        </mxCell>
        <mxCell id="ZdzDDIdJYCtwSN7JUISU-108" value="" style="endArrow=none;html=1;rounded=0;" edge="1" parent="ZdzDDIdJYCtwSN7JUISU-102">
          <mxGeometry width="50" height="50" relative="1" as="geometry">
            <mxPoint x="120" y="120" as="sourcePoint" />
            <mxPoint x="160" y="120" as="targetPoint" />
          </mxGeometry>
        </mxCell>
        <mxCell id="ZdzDDIdJYCtwSN7JUISU-109" value="" style="endArrow=none;html=1;rounded=0;" edge="1" parent="ZdzDDIdJYCtwSN7JUISU-102">
          <mxGeometry width="50" height="50" relative="1" as="geometry">
            <mxPoint x="160" y="120" as="sourcePoint" />
            <mxPoint x="160" y="80" as="targetPoint" />
          </mxGeometry>
        </mxCell>
        <mxCell id="ZdzDDIdJYCtwSN7JUISU-110" value="" style="endArrow=none;html=1;rounded=0;" edge="1" parent="ZdzDDIdJYCtwSN7JUISU-102">
          <mxGeometry width="50" height="50" relative="1" as="geometry">
            <mxPoint x="160" y="80" as="sourcePoint" />
            <mxPoint x="200" y="80" as="targetPoint" />
          </mxGeometry>
        </mxCell>
        <mxCell id="ZdzDDIdJYCtwSN7JUISU-111" value="" style="endArrow=none;html=1;rounded=0;" edge="1" parent="ZdzDDIdJYCtwSN7JUISU-102">
          <mxGeometry width="50" height="50" relative="1" as="geometry">
            <mxPoint x="200" y="80" as="sourcePoint" />
            <mxPoint x="200" y="40" as="targetPoint" />
          </mxGeometry>
        </mxCell>
        <mxCell id="ZdzDDIdJYCtwSN7JUISU-112" value="" style="endArrow=none;html=1;rounded=0;" edge="1" parent="ZdzDDIdJYCtwSN7JUISU-102">
          <mxGeometry width="50" height="50" relative="1" as="geometry">
            <mxPoint x="200" y="40" as="sourcePoint" />
            <mxPoint x="240" y="40" as="targetPoint" />
          </mxGeometry>
        </mxCell>
        <mxCell id="ZdzDDIdJYCtwSN7JUISU-113" value="" style="endArrow=none;html=1;rounded=0;" edge="1" parent="ZdzDDIdJYCtwSN7JUISU-102">
          <mxGeometry width="50" height="50" relative="1" as="geometry">
            <mxPoint x="40" y="200" as="sourcePoint" />
            <mxPoint x="80" y="200" as="targetPoint" />
          </mxGeometry>
        </mxCell>
        <mxCell id="ZdzDDIdJYCtwSN7JUISU-101" value="" style="group" vertex="1" connectable="0" parent="ZdzDDIdJYCtwSN7JUISU-102">
          <mxGeometry width="240" height="240" as="geometry" />
        </mxCell>
        <mxCell id="ZdzDDIdJYCtwSN7JUISU-118" value="" style="group;movable=1;resizable=1;rotatable=1;deletable=1;editable=1;locked=0;connectable=1;rotation=-90;" vertex="1" connectable="0" parent="ZdzDDIdJYCtwSN7JUISU-101">
          <mxGeometry x="200" width="40" height="40" as="geometry" />
        </mxCell>
        <mxCell id="ZdzDDIdJYCtwSN7JUISU-119" value="" style="triangle;whiteSpace=wrap;html=1;movable=1;resizable=1;rotatable=1;deletable=1;editable=1;locked=0;connectable=1;rotation=-90;" vertex="1" parent="ZdzDDIdJYCtwSN7JUISU-118">
          <mxGeometry width="40" height="40" as="geometry" />
        </mxCell>
        <mxCell id="ZdzDDIdJYCtwSN7JUISU-120" value="" style="ellipse;whiteSpace=wrap;html=1;aspect=fixed;movable=1;resizable=1;rotatable=1;deletable=1;editable=1;locked=0;connectable=1;rotation=-90;" vertex="1" parent="ZdzDDIdJYCtwSN7JUISU-118">
          <mxGeometry x="15" y="15" width="10" height="10" as="geometry" />
        </mxCell>
        <mxCell id="ZdzDDIdJYCtwSN7JUISU-121" value="" style="ellipse;whiteSpace=wrap;html=1;aspect=fixed;movable=1;resizable=1;rotatable=1;deletable=1;editable=1;locked=0;connectable=1;rotation=-90;" vertex="1" parent="ZdzDDIdJYCtwSN7JUISU-118">
          <mxGeometry x="5" y="30" width="10" height="10" as="geometry" />
        </mxCell>
        <mxCell id="ZdzDDIdJYCtwSN7JUISU-122" value="" style="ellipse;whiteSpace=wrap;html=1;aspect=fixed;movable=1;resizable=1;rotatable=1;deletable=1;editable=1;locked=0;connectable=1;rotation=-90;" vertex="1" parent="ZdzDDIdJYCtwSN7JUISU-118">
          <mxGeometry x="25" y="25" width="10" height="10" as="geometry" />
        </mxCell>
        <mxCell id="ZdzDDIdJYCtwSN7JUISU-123" value="" style="group" vertex="1" connectable="0" parent="ZdzDDIdJYCtwSN7JUISU-102">
          <mxGeometry x="120" y="100" width="40" height="20" as="geometry" />
        </mxCell>
        <mxCell id="ZdzDDIdJYCtwSN7JUISU-124" value="" style="ellipse;whiteSpace=wrap;html=1;" vertex="1" parent="ZdzDDIdJYCtwSN7JUISU-123">
          <mxGeometry x="10" width="30" height="20" as="geometry" />
        </mxCell>
        <mxCell id="ZdzDDIdJYCtwSN7JUISU-125" value="" style="ellipse;whiteSpace=wrap;html=1;aspect=fixed;" vertex="1" parent="ZdzDDIdJYCtwSN7JUISU-123">
          <mxGeometry x="30" width="10" height="10" as="geometry" />
        </mxCell>
        <mxCell id="ZdzDDIdJYCtwSN7JUISU-126" value="" style="curved=1;endArrow=classic;html=1;rounded=0;exitX=0;exitY=1;exitDx=0;exitDy=0;" edge="1" parent="ZdzDDIdJYCtwSN7JUISU-123" source="ZdzDDIdJYCtwSN7JUISU-124">
          <mxGeometry width="50" height="50" relative="1" as="geometry">
            <mxPoint x="-20" y="20" as="sourcePoint" />
            <mxPoint x="10" y="-10" as="targetPoint" />
            <Array as="points">
              <mxPoint y="17" />
              <mxPoint y="10" />
              <mxPoint />
            </Array>
          </mxGeometry>
        </mxCell>
        <mxCell id="nWaBwHYObVScqhDLKYJ5-1" value="" style="rounded=0;whiteSpace=wrap;html=1;" parent="1" vertex="1">
          <mxGeometry width="300" height="640" as="geometry" />
        </mxCell>
        <mxCell id="nWaBwHYObVScqhDLKYJ5-2" value="TITLE" style="rounded=0;whiteSpace=wrap;html=1;" parent="1" vertex="1">
          <mxGeometry x="50" y="20" width="200" height="40" as="geometry" />
        </mxCell>
        <mxCell id="nWaBwHYObVScqhDLKYJ5-4" value="HINT" style="rounded=0;whiteSpace=wrap;html=1;" parent="1" vertex="1">
          <mxGeometry x="50" y="80" width="200" height="40" as="geometry" />
        </mxCell>
        <mxCell id="nWaBwHYObVScqhDLKYJ5-5" value="VISUAL BOX" style="rounded=0;whiteSpace=wrap;html=1;" parent="1" vertex="1">
          <mxGeometry x="50" y="140" width="200" height="200" as="geometry" />
        </mxCell>
        <mxCell id="nWaBwHYObVScqhDLKYJ5-7" value="LETTER INPUT" style="rounded=0;whiteSpace=wrap;html=1;" parent="1" vertex="1">
          <mxGeometry x="50" y="520" width="100" height="40" as="geometry" />
        </mxCell>
        <mxCell id="nWaBwHYObVScqhDLKYJ5-8" value="SUBMIT" style="rounded=0;whiteSpace=wrap;html=1;" parent="1" vertex="1">
          <mxGeometry x="190" y="520" width="60" height="40" as="geometry" />
        </mxCell>
        <mxCell id="nWaBwHYObVScqhDLKYJ5-9" value="WORD INPUT" style="rounded=0;whiteSpace=wrap;html=1;" parent="1" vertex="1">
          <mxGeometry x="50" y="580" width="100" height="40" as="geometry" />
        </mxCell>
        <mxCell id="nWaBwHYObVScqhDLKYJ5-10" value="SUBMIT" style="rounded=0;whiteSpace=wrap;html=1;" parent="1" vertex="1">
          <mxGeometry x="190" y="580" width="60" height="40" as="geometry" />
        </mxCell>
        <mxCell id="nWaBwHYObVScqhDLKYJ5-12" value="SUBMISSION OPTION" style="rounded=0;whiteSpace=wrap;html=1;" parent="1" vertex="1">
          <mxGeometry x="105" y="460" width="90" height="40" as="geometry" />
        </mxCell>
        <mxCell id="nWaBwHYObVScqhDLKYJ5-13" value="MESSAGE" style="rounded=0;whiteSpace=wrap;html=1;" parent="1" vertex="1">
          <mxGeometry x="50" y="360" width="200" height="80" as="geometry" />
        </mxCell>
        <mxCell id="nWaBwHYObVScqhDLKYJ5-17" style="edgeStyle=orthogonalEdgeStyle;rounded=0;orthogonalLoop=1;jettySize=auto;html=1;" parent="1" source="nWaBwHYObVScqhDLKYJ5-15" target="nWaBwHYObVScqhDLKYJ5-2" edge="1">
          <mxGeometry relative="1" as="geometry" />
        </mxCell>
        <mxCell id="nWaBwHYObVScqhDLKYJ5-15" value="LABEL - Title" style="text;html=1;strokeColor=none;fillColor=none;align=center;verticalAlign=middle;whiteSpace=wrap;rounded=0;" parent="1" vertex="1">
          <mxGeometry x="410" y="25" width="150" height="30" as="geometry" />
        </mxCell>
        <mxCell id="nWaBwHYObVScqhDLKYJ5-18" style="edgeStyle=orthogonalEdgeStyle;rounded=0;orthogonalLoop=1;jettySize=auto;html=1;" parent="1" source="nWaBwHYObVScqhDLKYJ5-19" edge="1">
          <mxGeometry relative="1" as="geometry">
            <mxPoint x="250" y="100" as="targetPoint" />
          </mxGeometry>
        </mxCell>
        <mxCell id="nWaBwHYObVScqhDLKYJ5-19" value="MESSAGE - Hint Box" style="text;html=1;strokeColor=none;fillColor=none;align=center;verticalAlign=middle;whiteSpace=wrap;rounded=0;" parent="1" vertex="1">
          <mxGeometry x="410" y="85" width="150" height="30" as="geometry" />
        </mxCell>
        <mxCell id="nWaBwHYObVScqhDLKYJ5-20" style="edgeStyle=orthogonalEdgeStyle;rounded=0;orthogonalLoop=1;jettySize=auto;html=1;" parent="1" source="nWaBwHYObVScqhDLKYJ5-21" edge="1">
          <mxGeometry relative="1" as="geometry">
            <mxPoint x="250" y="240" as="targetPoint" />
          </mxGeometry>
        </mxCell>
        <mxCell id="nWaBwHYObVScqhDLKYJ5-21" value="CANVAS - Visual Box" style="text;html=1;strokeColor=none;fillColor=none;align=center;verticalAlign=middle;whiteSpace=wrap;rounded=0;" parent="1" vertex="1">
          <mxGeometry x="410" y="225" width="150" height="30" as="geometry" />
        </mxCell>
        <mxCell id="nWaBwHYObVScqhDLKYJ5-22" style="edgeStyle=orthogonalEdgeStyle;rounded=0;orthogonalLoop=1;jettySize=auto;html=1;" parent="1" source="nWaBwHYObVScqhDLKYJ5-23" edge="1">
          <mxGeometry relative="1" as="geometry">
            <mxPoint x="250" y="400" as="targetPoint" />
          </mxGeometry>
        </mxCell>
        <mxCell id="nWaBwHYObVScqhDLKYJ5-23" value="MESSAGE - Message Box" style="text;html=1;strokeColor=none;fillColor=none;align=center;verticalAlign=middle;whiteSpace=wrap;rounded=0;" parent="1" vertex="1">
          <mxGeometry x="410" y="385" width="150" height="30" as="geometry" />
        </mxCell>
        <mxCell id="nWaBwHYObVScqhDLKYJ5-24" style="edgeStyle=orthogonalEdgeStyle;rounded=0;orthogonalLoop=1;jettySize=auto;html=1;entryX=1;entryY=0.5;entryDx=0;entryDy=0;" parent="1" source="nWaBwHYObVScqhDLKYJ5-25" target="nWaBwHYObVScqhDLKYJ5-12" edge="1">
          <mxGeometry relative="1" as="geometry">
            <mxPoint x="250" y="480" as="targetPoint" />
            <Array as="points">
              <mxPoint x="360" y="480" />
              <mxPoint x="360" y="480" />
            </Array>
          </mxGeometry>
        </mxCell>
        <mxCell id="nWaBwHYObVScqhDLKYJ5-26" style="edgeStyle=orthogonalEdgeStyle;rounded=0;orthogonalLoop=1;jettySize=auto;html=1;entryX=1;entryY=0.5;entryDx=0;entryDy=0;" parent="1" source="nWaBwHYObVScqhDLKYJ5-25" target="nWaBwHYObVScqhDLKYJ5-8" edge="1">
          <mxGeometry relative="1" as="geometry">
            <Array as="points">
              <mxPoint x="330" y="480" />
              <mxPoint x="330" y="540" />
            </Array>
          </mxGeometry>
        </mxCell>
        <mxCell id="nWaBwHYObVScqhDLKYJ5-27" style="edgeStyle=orthogonalEdgeStyle;rounded=0;orthogonalLoop=1;jettySize=auto;html=1;entryX=1;entryY=0.5;entryDx=0;entryDy=0;" parent="1" source="nWaBwHYObVScqhDLKYJ5-25" target="nWaBwHYObVScqhDLKYJ5-10" edge="1">
          <mxGeometry relative="1" as="geometry">
            <Array as="points">
              <mxPoint x="330" y="480" />
              <mxPoint x="330" y="600" />
            </Array>
          </mxGeometry>
        </mxCell>
        <mxCell id="nWaBwHYObVScqhDLKYJ5-25" value="BUTTON &lt;br&gt;- Submission Option&lt;br&gt;- Letter Submit&lt;br&gt;- Word Submit" style="text;html=1;strokeColor=none;fillColor=none;align=center;verticalAlign=middle;whiteSpace=wrap;rounded=0;" parent="1" vertex="1">
          <mxGeometry x="410" y="465" width="150" height="75" as="geometry" />
        </mxCell>
        <mxCell id="nWaBwHYObVScqhDLKYJ5-30" style="edgeStyle=orthogonalEdgeStyle;rounded=0;orthogonalLoop=1;jettySize=auto;html=1;entryX=1;entryY=0.5;entryDx=0;entryDy=0;" parent="1" source="nWaBwHYObVScqhDLKYJ5-29" target="nWaBwHYObVScqhDLKYJ5-9" edge="1">
          <mxGeometry relative="1" as="geometry">
            <Array as="points">
              <mxPoint x="170" y="645" />
              <mxPoint x="170" y="600" />
            </Array>
          </mxGeometry>
        </mxCell>
        <mxCell id="nWaBwHYObVScqhDLKYJ5-31" style="edgeStyle=orthogonalEdgeStyle;rounded=0;orthogonalLoop=1;jettySize=auto;html=1;entryX=1;entryY=0.5;entryDx=0;entryDy=0;" parent="1" source="nWaBwHYObVScqhDLKYJ5-29" target="nWaBwHYObVScqhDLKYJ5-7" edge="1">
          <mxGeometry relative="1" as="geometry">
            <Array as="points">
              <mxPoint x="170" y="645" />
              <mxPoint x="170" y="540" />
            </Array>
          </mxGeometry>
        </mxCell>
        <mxCell id="nWaBwHYObVScqhDLKYJ5-29" value="ENTRY&amp;nbsp;&lt;br&gt;- Letter Input&lt;br&gt;- Word Input" style="text;html=1;strokeColor=none;fillColor=none;align=center;verticalAlign=middle;whiteSpace=wrap;rounded=0;" parent="1" vertex="1">
          <mxGeometry x="414" y="600" width="146" height="90" as="geometry" />
        </mxCell>
        <mxCell id="ZdzDDIdJYCtwSN7JUISU-20" value="" style="group" vertex="1" connectable="0" parent="1">
          <mxGeometry y="720" width="240" height="240" as="geometry" />
        </mxCell>
        <mxCell id="ZdzDDIdJYCtwSN7JUISU-13" value="" style="group" vertex="1" connectable="0" parent="ZdzDDIdJYCtwSN7JUISU-20">
          <mxGeometry width="240" height="240" as="geometry" />
        </mxCell>
        <mxCell id="ZdzDDIdJYCtwSN7JUISU-1" value="" style="rounded=0;whiteSpace=wrap;html=1;" vertex="1" parent="ZdzDDIdJYCtwSN7JUISU-13">
          <mxGeometry width="240" height="240" as="geometry" />
        </mxCell>
        <mxCell id="ZdzDDIdJYCtwSN7JUISU-12" value="" style="endArrow=none;html=1;rounded=0;" edge="1" parent="ZdzDDIdJYCtwSN7JUISU-13">
          <mxGeometry width="50" height="50" relative="1" as="geometry">
            <mxPoint x="40" y="240" as="sourcePoint" />
            <mxPoint x="40" y="200" as="targetPoint" />
          </mxGeometry>
        </mxCell>
        <mxCell id="ZdzDDIdJYCtwSN7JUISU-2" value="" style="endArrow=none;html=1;rounded=0;" edge="1" parent="ZdzDDIdJYCtwSN7JUISU-13">
          <mxGeometry width="50" height="50" relative="1" as="geometry">
            <mxPoint x="40" y="200" as="sourcePoint" />
            <mxPoint x="80" y="200" as="targetPoint" />
          </mxGeometry>
        </mxCell>
        <mxCell id="ZdzDDIdJYCtwSN7JUISU-3" value="" style="endArrow=none;html=1;rounded=0;" edge="1" parent="ZdzDDIdJYCtwSN7JUISU-13">
          <mxGeometry width="50" height="50" relative="1" as="geometry">
            <mxPoint x="80" y="200" as="sourcePoint" />
            <mxPoint x="80" y="160" as="targetPoint" />
          </mxGeometry>
        </mxCell>
        <mxCell id="ZdzDDIdJYCtwSN7JUISU-4" value="" style="endArrow=none;html=1;rounded=0;" edge="1" parent="ZdzDDIdJYCtwSN7JUISU-13">
          <mxGeometry width="50" height="50" relative="1" as="geometry">
            <mxPoint x="80" y="160" as="sourcePoint" />
            <mxPoint x="120" y="160" as="targetPoint" />
          </mxGeometry>
        </mxCell>
        <mxCell id="ZdzDDIdJYCtwSN7JUISU-5" value="" style="endArrow=none;html=1;rounded=0;" edge="1" parent="ZdzDDIdJYCtwSN7JUISU-13">
          <mxGeometry width="50" height="50" relative="1" as="geometry">
            <mxPoint x="120" y="160" as="sourcePoint" />
            <mxPoint x="120" y="120" as="targetPoint" />
          </mxGeometry>
        </mxCell>
        <mxCell id="ZdzDDIdJYCtwSN7JUISU-6" value="" style="endArrow=none;html=1;rounded=0;" edge="1" parent="ZdzDDIdJYCtwSN7JUISU-13">
          <mxGeometry width="50" height="50" relative="1" as="geometry">
            <mxPoint x="120" y="120" as="sourcePoint" />
            <mxPoint x="160" y="120" as="targetPoint" />
          </mxGeometry>
        </mxCell>
        <mxCell id="ZdzDDIdJYCtwSN7JUISU-7" value="" style="endArrow=none;html=1;rounded=0;" edge="1" parent="ZdzDDIdJYCtwSN7JUISU-13">
          <mxGeometry width="50" height="50" relative="1" as="geometry">
            <mxPoint x="160" y="120" as="sourcePoint" />
            <mxPoint x="160" y="80" as="targetPoint" />
          </mxGeometry>
        </mxCell>
        <mxCell id="ZdzDDIdJYCtwSN7JUISU-8" value="" style="endArrow=none;html=1;rounded=0;" edge="1" parent="ZdzDDIdJYCtwSN7JUISU-13">
          <mxGeometry width="50" height="50" relative="1" as="geometry">
            <mxPoint x="160" y="80" as="sourcePoint" />
            <mxPoint x="200" y="80" as="targetPoint" />
          </mxGeometry>
        </mxCell>
        <mxCell id="ZdzDDIdJYCtwSN7JUISU-9" value="" style="endArrow=none;html=1;rounded=0;" edge="1" parent="ZdzDDIdJYCtwSN7JUISU-13">
          <mxGeometry width="50" height="50" relative="1" as="geometry">
            <mxPoint x="200" y="80" as="sourcePoint" />
            <mxPoint x="200" y="40" as="targetPoint" />
          </mxGeometry>
        </mxCell>
        <mxCell id="ZdzDDIdJYCtwSN7JUISU-10" value="" style="endArrow=none;html=1;rounded=0;" edge="1" parent="ZdzDDIdJYCtwSN7JUISU-13">
          <mxGeometry width="50" height="50" relative="1" as="geometry">
            <mxPoint x="200" y="40" as="sourcePoint" />
            <mxPoint x="240" y="40" as="targetPoint" />
          </mxGeometry>
        </mxCell>
        <mxCell id="ZdzDDIdJYCtwSN7JUISU-31" value="" style="group" vertex="1" connectable="0" parent="ZdzDDIdJYCtwSN7JUISU-13">
          <mxGeometry y="220" width="40" height="20" as="geometry" />
        </mxCell>
        <mxCell id="ZdzDDIdJYCtwSN7JUISU-32" value="" style="ellipse;whiteSpace=wrap;html=1;" vertex="1" parent="ZdzDDIdJYCtwSN7JUISU-31">
          <mxGeometry x="10" width="30" height="20" as="geometry" />
        </mxCell>
        <mxCell id="ZdzDDIdJYCtwSN7JUISU-33" value="" style="ellipse;whiteSpace=wrap;html=1;aspect=fixed;" vertex="1" parent="ZdzDDIdJYCtwSN7JUISU-31">
          <mxGeometry x="30" width="10" height="10" as="geometry" />
        </mxCell>
        <mxCell id="ZdzDDIdJYCtwSN7JUISU-34" value="" style="curved=1;endArrow=classic;html=1;rounded=0;exitX=0;exitY=1;exitDx=0;exitDy=0;" edge="1" parent="ZdzDDIdJYCtwSN7JUISU-31" source="ZdzDDIdJYCtwSN7JUISU-32">
          <mxGeometry width="50" height="50" relative="1" as="geometry">
            <mxPoint x="-20" y="20" as="sourcePoint" />
            <mxPoint x="10" y="-10" as="targetPoint" />
            <Array as="points">
              <mxPoint y="17" />
              <mxPoint y="10" />
              <mxPoint />
            </Array>
          </mxGeometry>
        </mxCell>
        <mxCell id="ZdzDDIdJYCtwSN7JUISU-18" value="" style="group;movable=1;resizable=1;rotatable=1;deletable=1;editable=1;locked=0;connectable=1;rotation=-90;" vertex="1" connectable="0" parent="ZdzDDIdJYCtwSN7JUISU-20">
          <mxGeometry x="200" width="40" height="40" as="geometry" />
        </mxCell>
        <mxCell id="ZdzDDIdJYCtwSN7JUISU-14" value="" style="triangle;whiteSpace=wrap;html=1;movable=1;resizable=1;rotatable=1;deletable=1;editable=1;locked=0;connectable=1;rotation=-90;" vertex="1" parent="ZdzDDIdJYCtwSN7JUISU-18">
          <mxGeometry width="40" height="40" as="geometry" />
        </mxCell>
        <mxCell id="ZdzDDIdJYCtwSN7JUISU-15" value="" style="ellipse;whiteSpace=wrap;html=1;aspect=fixed;movable=1;resizable=1;rotatable=1;deletable=1;editable=1;locked=0;connectable=1;rotation=-90;" vertex="1" parent="ZdzDDIdJYCtwSN7JUISU-18">
          <mxGeometry x="15" y="15" width="10" height="10" as="geometry" />
        </mxCell>
        <mxCell id="ZdzDDIdJYCtwSN7JUISU-16" value="" style="ellipse;whiteSpace=wrap;html=1;aspect=fixed;movable=1;resizable=1;rotatable=1;deletable=1;editable=1;locked=0;connectable=1;rotation=-90;" vertex="1" parent="ZdzDDIdJYCtwSN7JUISU-18">
          <mxGeometry x="5" y="30" width="10" height="10" as="geometry" />
        </mxCell>
        <mxCell id="ZdzDDIdJYCtwSN7JUISU-17" value="" style="ellipse;whiteSpace=wrap;html=1;aspect=fixed;movable=1;resizable=1;rotatable=1;deletable=1;editable=1;locked=0;connectable=1;rotation=-90;" vertex="1" parent="ZdzDDIdJYCtwSN7JUISU-18">
          <mxGeometry x="25" y="25" width="10" height="10" as="geometry" />
        </mxCell>
        <mxCell id="ZdzDDIdJYCtwSN7JUISU-26" value="" style="group" vertex="1" connectable="0" parent="1">
          <mxGeometry x="340" y="810" width="40" height="20" as="geometry" />
        </mxCell>
        <mxCell id="ZdzDDIdJYCtwSN7JUISU-21" value="" style="ellipse;whiteSpace=wrap;html=1;" vertex="1" parent="ZdzDDIdJYCtwSN7JUISU-26">
          <mxGeometry x="10" width="30" height="20" as="geometry" />
        </mxCell>
        <mxCell id="ZdzDDIdJYCtwSN7JUISU-22" value="" style="ellipse;whiteSpace=wrap;html=1;aspect=fixed;" vertex="1" parent="ZdzDDIdJYCtwSN7JUISU-26">
          <mxGeometry x="30" width="10" height="10" as="geometry" />
        </mxCell>
        <mxCell id="ZdzDDIdJYCtwSN7JUISU-23" value="" style="curved=1;endArrow=classic;html=1;rounded=0;exitX=0;exitY=1;exitDx=0;exitDy=0;" edge="1" parent="ZdzDDIdJYCtwSN7JUISU-26" source="ZdzDDIdJYCtwSN7JUISU-21">
          <mxGeometry width="50" height="50" relative="1" as="geometry">
            <mxPoint x="-20" y="20" as="sourcePoint" />
            <mxPoint x="10" y="-10" as="targetPoint" />
            <Array as="points">
              <mxPoint y="17" />
              <mxPoint y="10" />
              <mxPoint />
            </Array>
          </mxGeometry>
        </mxCell>
        <mxCell id="ZdzDDIdJYCtwSN7JUISU-35" value="" style="group" vertex="1" connectable="0" parent="1">
          <mxGeometry y="1000" width="240" height="240" as="geometry" />
        </mxCell>
        <mxCell id="ZdzDDIdJYCtwSN7JUISU-36" value="" style="group" vertex="1" connectable="0" parent="ZdzDDIdJYCtwSN7JUISU-35">
          <mxGeometry width="240" height="240" as="geometry" />
        </mxCell>
        <mxCell id="ZdzDDIdJYCtwSN7JUISU-37" value="" style="rounded=0;whiteSpace=wrap;html=1;" vertex="1" parent="ZdzDDIdJYCtwSN7JUISU-36">
          <mxGeometry width="240" height="240" as="geometry" />
        </mxCell>
        <mxCell id="ZdzDDIdJYCtwSN7JUISU-38" value="" style="endArrow=none;html=1;rounded=0;" edge="1" parent="ZdzDDIdJYCtwSN7JUISU-36">
          <mxGeometry width="50" height="50" relative="1" as="geometry">
            <mxPoint x="40" y="240" as="sourcePoint" />
            <mxPoint x="40" y="200" as="targetPoint" />
          </mxGeometry>
        </mxCell>
        <mxCell id="ZdzDDIdJYCtwSN7JUISU-39" value="" style="endArrow=none;html=1;rounded=0;" edge="1" parent="ZdzDDIdJYCtwSN7JUISU-36">
          <mxGeometry width="50" height="50" relative="1" as="geometry">
            <mxPoint x="40" y="200" as="sourcePoint" />
            <mxPoint x="80" y="200" as="targetPoint" />
          </mxGeometry>
        </mxCell>
        <mxCell id="ZdzDDIdJYCtwSN7JUISU-40" value="" style="endArrow=none;html=1;rounded=0;" edge="1" parent="ZdzDDIdJYCtwSN7JUISU-36">
          <mxGeometry width="50" height="50" relative="1" as="geometry">
            <mxPoint x="80" y="200" as="sourcePoint" />
            <mxPoint x="80" y="160" as="targetPoint" />
          </mxGeometry>
        </mxCell>
        <mxCell id="ZdzDDIdJYCtwSN7JUISU-41" value="" style="endArrow=none;html=1;rounded=0;" edge="1" parent="ZdzDDIdJYCtwSN7JUISU-36">
          <mxGeometry width="50" height="50" relative="1" as="geometry">
            <mxPoint x="80" y="160" as="sourcePoint" />
            <mxPoint x="120" y="160" as="targetPoint" />
          </mxGeometry>
        </mxCell>
        <mxCell id="ZdzDDIdJYCtwSN7JUISU-42" value="" style="endArrow=none;html=1;rounded=0;" edge="1" parent="ZdzDDIdJYCtwSN7JUISU-36">
          <mxGeometry width="50" height="50" relative="1" as="geometry">
            <mxPoint x="120" y="160" as="sourcePoint" />
            <mxPoint x="120" y="120" as="targetPoint" />
          </mxGeometry>
        </mxCell>
        <mxCell id="ZdzDDIdJYCtwSN7JUISU-43" value="" style="endArrow=none;html=1;rounded=0;" edge="1" parent="ZdzDDIdJYCtwSN7JUISU-36">
          <mxGeometry width="50" height="50" relative="1" as="geometry">
            <mxPoint x="120" y="120" as="sourcePoint" />
            <mxPoint x="160" y="120" as="targetPoint" />
          </mxGeometry>
        </mxCell>
        <mxCell id="ZdzDDIdJYCtwSN7JUISU-44" value="" style="endArrow=none;html=1;rounded=0;" edge="1" parent="ZdzDDIdJYCtwSN7JUISU-36">
          <mxGeometry width="50" height="50" relative="1" as="geometry">
            <mxPoint x="160" y="120" as="sourcePoint" />
            <mxPoint x="160" y="80" as="targetPoint" />
          </mxGeometry>
        </mxCell>
        <mxCell id="ZdzDDIdJYCtwSN7JUISU-45" value="" style="endArrow=none;html=1;rounded=0;" edge="1" parent="ZdzDDIdJYCtwSN7JUISU-36">
          <mxGeometry width="50" height="50" relative="1" as="geometry">
            <mxPoint x="160" y="80" as="sourcePoint" />
            <mxPoint x="200" y="80" as="targetPoint" />
          </mxGeometry>
        </mxCell>
        <mxCell id="ZdzDDIdJYCtwSN7JUISU-46" value="" style="endArrow=none;html=1;rounded=0;" edge="1" parent="ZdzDDIdJYCtwSN7JUISU-36">
          <mxGeometry width="50" height="50" relative="1" as="geometry">
            <mxPoint x="200" y="80" as="sourcePoint" />
            <mxPoint x="200" y="40" as="targetPoint" />
          </mxGeometry>
        </mxCell>
        <mxCell id="ZdzDDIdJYCtwSN7JUISU-47" value="" style="endArrow=none;html=1;rounded=0;" edge="1" parent="ZdzDDIdJYCtwSN7JUISU-36">
          <mxGeometry width="50" height="50" relative="1" as="geometry">
            <mxPoint x="200" y="40" as="sourcePoint" />
            <mxPoint x="240" y="40" as="targetPoint" />
          </mxGeometry>
        </mxCell>
        <mxCell id="ZdzDDIdJYCtwSN7JUISU-48" value="" style="group" vertex="1" connectable="0" parent="ZdzDDIdJYCtwSN7JUISU-36">
          <mxGeometry x="40" y="180" width="40" height="20" as="geometry" />
        </mxCell>
        <mxCell id="ZdzDDIdJYCtwSN7JUISU-49" value="" style="ellipse;whiteSpace=wrap;html=1;" vertex="1" parent="ZdzDDIdJYCtwSN7JUISU-48">
          <mxGeometry x="10" width="30" height="20" as="geometry" />
        </mxCell>
        <mxCell id="ZdzDDIdJYCtwSN7JUISU-50" value="" style="ellipse;whiteSpace=wrap;html=1;aspect=fixed;" vertex="1" parent="ZdzDDIdJYCtwSN7JUISU-48">
          <mxGeometry x="30" width="10" height="10" as="geometry" />
        </mxCell>
        <mxCell id="ZdzDDIdJYCtwSN7JUISU-51" value="" style="curved=1;endArrow=classic;html=1;rounded=0;exitX=0;exitY=1;exitDx=0;exitDy=0;" edge="1" parent="ZdzDDIdJYCtwSN7JUISU-48" source="ZdzDDIdJYCtwSN7JUISU-49">
          <mxGeometry width="50" height="50" relative="1" as="geometry">
            <mxPoint x="-20" y="20" as="sourcePoint" />
            <mxPoint x="10" y="-10" as="targetPoint" />
            <Array as="points">
              <mxPoint y="17" />
              <mxPoint y="10" />
              <mxPoint />
            </Array>
          </mxGeometry>
        </mxCell>
        <mxCell id="ZdzDDIdJYCtwSN7JUISU-52" value="" style="group;movable=1;resizable=1;rotatable=1;deletable=1;editable=1;locked=0;connectable=1;rotation=-90;" vertex="1" connectable="0" parent="ZdzDDIdJYCtwSN7JUISU-35">
          <mxGeometry x="200" width="40" height="40" as="geometry" />
        </mxCell>
        <mxCell id="ZdzDDIdJYCtwSN7JUISU-53" value="" style="triangle;whiteSpace=wrap;html=1;movable=1;resizable=1;rotatable=1;deletable=1;editable=1;locked=0;connectable=1;rotation=-90;" vertex="1" parent="ZdzDDIdJYCtwSN7JUISU-52">
          <mxGeometry width="40" height="40" as="geometry" />
        </mxCell>
        <mxCell id="ZdzDDIdJYCtwSN7JUISU-54" value="" style="ellipse;whiteSpace=wrap;html=1;aspect=fixed;movable=1;resizable=1;rotatable=1;deletable=1;editable=1;locked=0;connectable=1;rotation=-90;" vertex="1" parent="ZdzDDIdJYCtwSN7JUISU-52">
          <mxGeometry x="15" y="15" width="10" height="10" as="geometry" />
        </mxCell>
        <mxCell id="ZdzDDIdJYCtwSN7JUISU-55" value="" style="ellipse;whiteSpace=wrap;html=1;aspect=fixed;movable=1;resizable=1;rotatable=1;deletable=1;editable=1;locked=0;connectable=1;rotation=-90;" vertex="1" parent="ZdzDDIdJYCtwSN7JUISU-52">
          <mxGeometry x="5" y="30" width="10" height="10" as="geometry" />
        </mxCell>
        <mxCell id="ZdzDDIdJYCtwSN7JUISU-56" value="" style="ellipse;whiteSpace=wrap;html=1;aspect=fixed;movable=1;resizable=1;rotatable=1;deletable=1;editable=1;locked=0;connectable=1;rotation=-90;" vertex="1" parent="ZdzDDIdJYCtwSN7JUISU-52">
          <mxGeometry x="25" y="25" width="10" height="10" as="geometry" />
        </mxCell>
        <mxCell id="ZdzDDIdJYCtwSN7JUISU-57" value="" style="group" vertex="1" connectable="0" parent="1">
          <mxGeometry y="1280" width="240" height="240" as="geometry" />
        </mxCell>
        <mxCell id="ZdzDDIdJYCtwSN7JUISU-58" value="" style="group" vertex="1" connectable="0" parent="ZdzDDIdJYCtwSN7JUISU-57">
          <mxGeometry width="240" height="240" as="geometry" />
        </mxCell>
        <mxCell id="ZdzDDIdJYCtwSN7JUISU-59" value="" style="rounded=0;whiteSpace=wrap;html=1;" vertex="1" parent="ZdzDDIdJYCtwSN7JUISU-58">
          <mxGeometry width="240" height="240" as="geometry" />
        </mxCell>
        <mxCell id="ZdzDDIdJYCtwSN7JUISU-60" value="" style="endArrow=none;html=1;rounded=0;" edge="1" parent="ZdzDDIdJYCtwSN7JUISU-58">
          <mxGeometry width="50" height="50" relative="1" as="geometry">
            <mxPoint x="40" y="240" as="sourcePoint" />
            <mxPoint x="40" y="200" as="targetPoint" />
          </mxGeometry>
        </mxCell>
        <mxCell id="ZdzDDIdJYCtwSN7JUISU-62" value="" style="endArrow=none;html=1;rounded=0;" edge="1" parent="ZdzDDIdJYCtwSN7JUISU-58">
          <mxGeometry width="50" height="50" relative="1" as="geometry">
            <mxPoint x="80" y="200" as="sourcePoint" />
            <mxPoint x="80" y="160" as="targetPoint" />
          </mxGeometry>
        </mxCell>
        <mxCell id="ZdzDDIdJYCtwSN7JUISU-63" value="" style="endArrow=none;html=1;rounded=0;" edge="1" parent="ZdzDDIdJYCtwSN7JUISU-58">
          <mxGeometry width="50" height="50" relative="1" as="geometry">
            <mxPoint x="80" y="160" as="sourcePoint" />
            <mxPoint x="120" y="160" as="targetPoint" />
          </mxGeometry>
        </mxCell>
        <mxCell id="ZdzDDIdJYCtwSN7JUISU-64" value="" style="endArrow=none;html=1;rounded=0;" edge="1" parent="ZdzDDIdJYCtwSN7JUISU-58">
          <mxGeometry width="50" height="50" relative="1" as="geometry">
            <mxPoint x="120" y="160" as="sourcePoint" />
            <mxPoint x="120" y="120" as="targetPoint" />
          </mxGeometry>
        </mxCell>
        <mxCell id="ZdzDDIdJYCtwSN7JUISU-65" value="" style="endArrow=none;html=1;rounded=0;" edge="1" parent="ZdzDDIdJYCtwSN7JUISU-58">
          <mxGeometry width="50" height="50" relative="1" as="geometry">
            <mxPoint x="120" y="120" as="sourcePoint" />
            <mxPoint x="160" y="120" as="targetPoint" />
          </mxGeometry>
        </mxCell>
        <mxCell id="ZdzDDIdJYCtwSN7JUISU-66" value="" style="endArrow=none;html=1;rounded=0;" edge="1" parent="ZdzDDIdJYCtwSN7JUISU-58">
          <mxGeometry width="50" height="50" relative="1" as="geometry">
            <mxPoint x="160" y="120" as="sourcePoint" />
            <mxPoint x="160" y="80" as="targetPoint" />
          </mxGeometry>
        </mxCell>
        <mxCell id="ZdzDDIdJYCtwSN7JUISU-67" value="" style="endArrow=none;html=1;rounded=0;" edge="1" parent="ZdzDDIdJYCtwSN7JUISU-58">
          <mxGeometry width="50" height="50" relative="1" as="geometry">
            <mxPoint x="160" y="80" as="sourcePoint" />
            <mxPoint x="200" y="80" as="targetPoint" />
          </mxGeometry>
        </mxCell>
        <mxCell id="ZdzDDIdJYCtwSN7JUISU-68" value="" style="endArrow=none;html=1;rounded=0;" edge="1" parent="ZdzDDIdJYCtwSN7JUISU-58">
          <mxGeometry width="50" height="50" relative="1" as="geometry">
            <mxPoint x="200" y="80" as="sourcePoint" />
            <mxPoint x="200" y="40" as="targetPoint" />
          </mxGeometry>
        </mxCell>
        <mxCell id="ZdzDDIdJYCtwSN7JUISU-69" value="" style="endArrow=none;html=1;rounded=0;" edge="1" parent="ZdzDDIdJYCtwSN7JUISU-58">
          <mxGeometry width="50" height="50" relative="1" as="geometry">
            <mxPoint x="200" y="40" as="sourcePoint" />
            <mxPoint x="240" y="40" as="targetPoint" />
          </mxGeometry>
        </mxCell>
        <mxCell id="ZdzDDIdJYCtwSN7JUISU-61" value="" style="endArrow=none;html=1;rounded=0;" edge="1" parent="ZdzDDIdJYCtwSN7JUISU-58">
          <mxGeometry width="50" height="50" relative="1" as="geometry">
            <mxPoint x="40" y="200" as="sourcePoint" />
            <mxPoint x="80" y="200" as="targetPoint" />
          </mxGeometry>
        </mxCell>
        <mxCell id="ZdzDDIdJYCtwSN7JUISU-70" value="" style="group" vertex="1" connectable="0" parent="ZdzDDIdJYCtwSN7JUISU-58">
          <mxGeometry x="80" y="140" width="40" height="20" as="geometry" />
        </mxCell>
        <mxCell id="ZdzDDIdJYCtwSN7JUISU-71" value="" style="ellipse;whiteSpace=wrap;html=1;" vertex="1" parent="ZdzDDIdJYCtwSN7JUISU-70">
          <mxGeometry x="10" width="30" height="20" as="geometry" />
        </mxCell>
        <mxCell id="ZdzDDIdJYCtwSN7JUISU-72" value="" style="ellipse;whiteSpace=wrap;html=1;aspect=fixed;" vertex="1" parent="ZdzDDIdJYCtwSN7JUISU-70">
          <mxGeometry x="30" width="10" height="10" as="geometry" />
        </mxCell>
        <mxCell id="ZdzDDIdJYCtwSN7JUISU-73" value="" style="curved=1;endArrow=classic;html=1;rounded=0;exitX=0;exitY=1;exitDx=0;exitDy=0;" edge="1" parent="ZdzDDIdJYCtwSN7JUISU-70" source="ZdzDDIdJYCtwSN7JUISU-71">
          <mxGeometry width="50" height="50" relative="1" as="geometry">
            <mxPoint x="-20" y="20" as="sourcePoint" />
            <mxPoint x="10" y="-10" as="targetPoint" />
            <Array as="points">
              <mxPoint y="17" />
              <mxPoint y="10" />
              <mxPoint />
            </Array>
          </mxGeometry>
        </mxCell>
        <mxCell id="ZdzDDIdJYCtwSN7JUISU-74" value="" style="group;movable=1;resizable=1;rotatable=1;deletable=1;editable=1;locked=0;connectable=1;rotation=-90;" vertex="1" connectable="0" parent="ZdzDDIdJYCtwSN7JUISU-57">
          <mxGeometry x="200" width="40" height="40" as="geometry" />
        </mxCell>
        <mxCell id="ZdzDDIdJYCtwSN7JUISU-75" value="" style="triangle;whiteSpace=wrap;html=1;movable=1;resizable=1;rotatable=1;deletable=1;editable=1;locked=0;connectable=1;rotation=-90;" vertex="1" parent="ZdzDDIdJYCtwSN7JUISU-74">
          <mxGeometry width="40" height="40" as="geometry" />
        </mxCell>
        <mxCell id="ZdzDDIdJYCtwSN7JUISU-76" value="" style="ellipse;whiteSpace=wrap;html=1;aspect=fixed;movable=1;resizable=1;rotatable=1;deletable=1;editable=1;locked=0;connectable=1;rotation=-90;" vertex="1" parent="ZdzDDIdJYCtwSN7JUISU-74">
          <mxGeometry x="15" y="15" width="10" height="10" as="geometry" />
        </mxCell>
        <mxCell id="ZdzDDIdJYCtwSN7JUISU-77" value="" style="ellipse;whiteSpace=wrap;html=1;aspect=fixed;movable=1;resizable=1;rotatable=1;deletable=1;editable=1;locked=0;connectable=1;rotation=-90;" vertex="1" parent="ZdzDDIdJYCtwSN7JUISU-74">
          <mxGeometry x="5" y="30" width="10" height="10" as="geometry" />
        </mxCell>
        <mxCell id="ZdzDDIdJYCtwSN7JUISU-78" value="" style="ellipse;whiteSpace=wrap;html=1;aspect=fixed;movable=1;resizable=1;rotatable=1;deletable=1;editable=1;locked=0;connectable=1;rotation=-90;" vertex="1" parent="ZdzDDIdJYCtwSN7JUISU-74">
          <mxGeometry x="25" y="25" width="10" height="10" as="geometry" />
        </mxCell>
        <mxCell id="ZdzDDIdJYCtwSN7JUISU-127" value="" style="group" vertex="1" connectable="0" parent="1">
          <mxGeometry x="280" y="1280" width="240" height="240" as="geometry" />
        </mxCell>
        <mxCell id="ZdzDDIdJYCtwSN7JUISU-128" value="" style="group" vertex="1" connectable="0" parent="ZdzDDIdJYCtwSN7JUISU-127">
          <mxGeometry width="240" height="240" as="geometry" />
        </mxCell>
        <mxCell id="ZdzDDIdJYCtwSN7JUISU-129" value="" style="rounded=0;whiteSpace=wrap;html=1;" vertex="1" parent="ZdzDDIdJYCtwSN7JUISU-128">
          <mxGeometry width="240" height="240" as="geometry" />
        </mxCell>
        <mxCell id="ZdzDDIdJYCtwSN7JUISU-130" value="" style="endArrow=none;html=1;rounded=0;" edge="1" parent="ZdzDDIdJYCtwSN7JUISU-128">
          <mxGeometry width="50" height="50" relative="1" as="geometry">
            <mxPoint x="40" y="240" as="sourcePoint" />
            <mxPoint x="40" y="200" as="targetPoint" />
          </mxGeometry>
        </mxCell>
        <mxCell id="ZdzDDIdJYCtwSN7JUISU-131" value="" style="endArrow=none;html=1;rounded=0;" edge="1" parent="ZdzDDIdJYCtwSN7JUISU-128">
          <mxGeometry width="50" height="50" relative="1" as="geometry">
            <mxPoint x="40" y="200" as="sourcePoint" />
            <mxPoint x="80" y="200" as="targetPoint" />
          </mxGeometry>
        </mxCell>
        <mxCell id="ZdzDDIdJYCtwSN7JUISU-132" value="" style="endArrow=none;html=1;rounded=0;" edge="1" parent="ZdzDDIdJYCtwSN7JUISU-128">
          <mxGeometry width="50" height="50" relative="1" as="geometry">
            <mxPoint x="80" y="200" as="sourcePoint" />
            <mxPoint x="80" y="160" as="targetPoint" />
          </mxGeometry>
        </mxCell>
        <mxCell id="ZdzDDIdJYCtwSN7JUISU-133" value="" style="endArrow=none;html=1;rounded=0;" edge="1" parent="ZdzDDIdJYCtwSN7JUISU-128">
          <mxGeometry width="50" height="50" relative="1" as="geometry">
            <mxPoint x="80" y="160" as="sourcePoint" />
            <mxPoint x="120" y="160" as="targetPoint" />
          </mxGeometry>
        </mxCell>
        <mxCell id="ZdzDDIdJYCtwSN7JUISU-134" value="" style="endArrow=none;html=1;rounded=0;" edge="1" parent="ZdzDDIdJYCtwSN7JUISU-128">
          <mxGeometry width="50" height="50" relative="1" as="geometry">
            <mxPoint x="120" y="160" as="sourcePoint" />
            <mxPoint x="120" y="120" as="targetPoint" />
          </mxGeometry>
        </mxCell>
        <mxCell id="ZdzDDIdJYCtwSN7JUISU-135" value="" style="endArrow=none;html=1;rounded=0;" edge="1" parent="ZdzDDIdJYCtwSN7JUISU-128">
          <mxGeometry width="50" height="50" relative="1" as="geometry">
            <mxPoint x="120" y="120" as="sourcePoint" />
            <mxPoint x="160" y="120" as="targetPoint" />
          </mxGeometry>
        </mxCell>
        <mxCell id="ZdzDDIdJYCtwSN7JUISU-136" value="" style="endArrow=none;html=1;rounded=0;" edge="1" parent="ZdzDDIdJYCtwSN7JUISU-128">
          <mxGeometry width="50" height="50" relative="1" as="geometry">
            <mxPoint x="160" y="120" as="sourcePoint" />
            <mxPoint x="160" y="80" as="targetPoint" />
          </mxGeometry>
        </mxCell>
        <mxCell id="ZdzDDIdJYCtwSN7JUISU-137" value="" style="endArrow=none;html=1;rounded=0;" edge="1" parent="ZdzDDIdJYCtwSN7JUISU-128">
          <mxGeometry width="50" height="50" relative="1" as="geometry">
            <mxPoint x="160" y="80" as="sourcePoint" />
            <mxPoint x="200" y="80" as="targetPoint" />
          </mxGeometry>
        </mxCell>
        <mxCell id="ZdzDDIdJYCtwSN7JUISU-138" value="" style="endArrow=none;html=1;rounded=0;" edge="1" parent="ZdzDDIdJYCtwSN7JUISU-128">
          <mxGeometry width="50" height="50" relative="1" as="geometry">
            <mxPoint x="200" y="80" as="sourcePoint" />
            <mxPoint x="200" y="40" as="targetPoint" />
          </mxGeometry>
        </mxCell>
        <mxCell id="ZdzDDIdJYCtwSN7JUISU-139" value="" style="endArrow=none;html=1;rounded=0;" edge="1" parent="ZdzDDIdJYCtwSN7JUISU-128">
          <mxGeometry width="50" height="50" relative="1" as="geometry">
            <mxPoint x="200" y="40" as="sourcePoint" />
            <mxPoint x="240" y="40" as="targetPoint" />
          </mxGeometry>
        </mxCell>
        <mxCell id="ZdzDDIdJYCtwSN7JUISU-154" value="" style="group" vertex="1" connectable="0" parent="ZdzDDIdJYCtwSN7JUISU-128">
          <mxGeometry x="160" y="60" width="40" height="20" as="geometry" />
        </mxCell>
        <mxCell id="ZdzDDIdJYCtwSN7JUISU-155" value="" style="ellipse;whiteSpace=wrap;html=1;" vertex="1" parent="ZdzDDIdJYCtwSN7JUISU-154">
          <mxGeometry x="10" width="30" height="20" as="geometry" />
        </mxCell>
        <mxCell id="ZdzDDIdJYCtwSN7JUISU-156" value="" style="ellipse;whiteSpace=wrap;html=1;aspect=fixed;" vertex="1" parent="ZdzDDIdJYCtwSN7JUISU-154">
          <mxGeometry x="30" width="10" height="10" as="geometry" />
        </mxCell>
        <mxCell id="ZdzDDIdJYCtwSN7JUISU-157" value="" style="curved=1;endArrow=classic;html=1;rounded=0;exitX=0;exitY=1;exitDx=0;exitDy=0;" edge="1" parent="ZdzDDIdJYCtwSN7JUISU-154" source="ZdzDDIdJYCtwSN7JUISU-155">
          <mxGeometry width="50" height="50" relative="1" as="geometry">
            <mxPoint x="-20" y="20" as="sourcePoint" />
            <mxPoint x="10" y="-10" as="targetPoint" />
            <Array as="points">
              <mxPoint y="17" />
              <mxPoint y="10" />
              <mxPoint />
            </Array>
          </mxGeometry>
        </mxCell>
        <mxCell id="ZdzDDIdJYCtwSN7JUISU-144" value="" style="group;movable=1;resizable=1;rotatable=1;deletable=1;editable=1;locked=0;connectable=1;rotation=-90;" vertex="1" connectable="0" parent="ZdzDDIdJYCtwSN7JUISU-127">
          <mxGeometry x="200" width="40" height="40" as="geometry" />
        </mxCell>
        <mxCell id="ZdzDDIdJYCtwSN7JUISU-145" value="" style="triangle;whiteSpace=wrap;html=1;movable=1;resizable=1;rotatable=1;deletable=1;editable=1;locked=0;connectable=1;rotation=-90;" vertex="1" parent="ZdzDDIdJYCtwSN7JUISU-144">
          <mxGeometry width="40" height="40" as="geometry" />
        </mxCell>
        <mxCell id="ZdzDDIdJYCtwSN7JUISU-146" value="" style="ellipse;whiteSpace=wrap;html=1;aspect=fixed;movable=1;resizable=1;rotatable=1;deletable=1;editable=1;locked=0;connectable=1;rotation=-90;" vertex="1" parent="ZdzDDIdJYCtwSN7JUISU-144">
          <mxGeometry x="15" y="15" width="10" height="10" as="geometry" />
        </mxCell>
        <mxCell id="ZdzDDIdJYCtwSN7JUISU-147" value="" style="ellipse;whiteSpace=wrap;html=1;aspect=fixed;movable=1;resizable=1;rotatable=1;deletable=1;editable=1;locked=0;connectable=1;rotation=-90;" vertex="1" parent="ZdzDDIdJYCtwSN7JUISU-144">
          <mxGeometry x="5" y="30" width="10" height="10" as="geometry" />
        </mxCell>
        <mxCell id="ZdzDDIdJYCtwSN7JUISU-148" value="" style="ellipse;whiteSpace=wrap;html=1;aspect=fixed;movable=1;resizable=1;rotatable=1;deletable=1;editable=1;locked=0;connectable=1;rotation=-90;" vertex="1" parent="ZdzDDIdJYCtwSN7JUISU-144">
          <mxGeometry x="25" y="25" width="10" height="10" as="geometry" />
        </mxCell>
        <mxCell id="ZdzDDIdJYCtwSN7JUISU-158" value="" style="group" vertex="1" connectable="0" parent="1">
          <mxGeometry x="560" y="1280" width="240" height="240" as="geometry" />
        </mxCell>
        <mxCell id="ZdzDDIdJYCtwSN7JUISU-159" value="" style="group" vertex="1" connectable="0" parent="ZdzDDIdJYCtwSN7JUISU-158">
          <mxGeometry width="240" height="240" as="geometry" />
        </mxCell>
        <mxCell id="ZdzDDIdJYCtwSN7JUISU-160" value="" style="rounded=0;whiteSpace=wrap;html=1;" vertex="1" parent="ZdzDDIdJYCtwSN7JUISU-159">
          <mxGeometry width="240" height="240" as="geometry" />
        </mxCell>
        <mxCell id="ZdzDDIdJYCtwSN7JUISU-161" value="" style="endArrow=none;html=1;rounded=0;" edge="1" parent="ZdzDDIdJYCtwSN7JUISU-159">
          <mxGeometry width="50" height="50" relative="1" as="geometry">
            <mxPoint x="40" y="240" as="sourcePoint" />
            <mxPoint x="40" y="200" as="targetPoint" />
          </mxGeometry>
        </mxCell>
        <mxCell id="ZdzDDIdJYCtwSN7JUISU-162" value="" style="endArrow=none;html=1;rounded=0;" edge="1" parent="ZdzDDIdJYCtwSN7JUISU-159">
          <mxGeometry width="50" height="50" relative="1" as="geometry">
            <mxPoint x="40" y="200" as="sourcePoint" />
            <mxPoint x="80" y="200" as="targetPoint" />
          </mxGeometry>
        </mxCell>
        <mxCell id="ZdzDDIdJYCtwSN7JUISU-163" value="" style="endArrow=none;html=1;rounded=0;" edge="1" parent="ZdzDDIdJYCtwSN7JUISU-159">
          <mxGeometry width="50" height="50" relative="1" as="geometry">
            <mxPoint x="80" y="200" as="sourcePoint" />
            <mxPoint x="80" y="160" as="targetPoint" />
          </mxGeometry>
        </mxCell>
        <mxCell id="ZdzDDIdJYCtwSN7JUISU-164" value="" style="endArrow=none;html=1;rounded=0;" edge="1" parent="ZdzDDIdJYCtwSN7JUISU-159">
          <mxGeometry width="50" height="50" relative="1" as="geometry">
            <mxPoint x="80" y="160" as="sourcePoint" />
            <mxPoint x="120" y="160" as="targetPoint" />
          </mxGeometry>
        </mxCell>
        <mxCell id="ZdzDDIdJYCtwSN7JUISU-165" value="" style="endArrow=none;html=1;rounded=0;" edge="1" parent="ZdzDDIdJYCtwSN7JUISU-159">
          <mxGeometry width="50" height="50" relative="1" as="geometry">
            <mxPoint x="120" y="160" as="sourcePoint" />
            <mxPoint x="120" y="120" as="targetPoint" />
          </mxGeometry>
        </mxCell>
        <mxCell id="ZdzDDIdJYCtwSN7JUISU-166" value="" style="endArrow=none;html=1;rounded=0;" edge="1" parent="ZdzDDIdJYCtwSN7JUISU-159">
          <mxGeometry width="50" height="50" relative="1" as="geometry">
            <mxPoint x="120" y="120" as="sourcePoint" />
            <mxPoint x="160" y="120" as="targetPoint" />
          </mxGeometry>
        </mxCell>
        <mxCell id="ZdzDDIdJYCtwSN7JUISU-167" value="" style="endArrow=none;html=1;rounded=0;" edge="1" parent="ZdzDDIdJYCtwSN7JUISU-159">
          <mxGeometry width="50" height="50" relative="1" as="geometry">
            <mxPoint x="160" y="120" as="sourcePoint" />
            <mxPoint x="160" y="80" as="targetPoint" />
          </mxGeometry>
        </mxCell>
        <mxCell id="ZdzDDIdJYCtwSN7JUISU-170" value="" style="endArrow=none;html=1;rounded=0;" edge="1" parent="ZdzDDIdJYCtwSN7JUISU-159">
          <mxGeometry width="50" height="50" relative="1" as="geometry">
            <mxPoint x="200" y="40" as="sourcePoint" />
            <mxPoint x="240" y="40" as="targetPoint" />
          </mxGeometry>
        </mxCell>
        <mxCell id="ZdzDDIdJYCtwSN7JUISU-168" value="" style="endArrow=none;html=1;rounded=0;" edge="1" parent="ZdzDDIdJYCtwSN7JUISU-159">
          <mxGeometry width="50" height="50" relative="1" as="geometry">
            <mxPoint x="160" y="80" as="sourcePoint" />
            <mxPoint x="200" y="80" as="targetPoint" />
          </mxGeometry>
        </mxCell>
        <mxCell id="ZdzDDIdJYCtwSN7JUISU-169" value="" style="endArrow=none;html=1;rounded=0;" edge="1" parent="ZdzDDIdJYCtwSN7JUISU-159">
          <mxGeometry width="50" height="50" relative="1" as="geometry">
            <mxPoint x="200" y="80" as="sourcePoint" />
            <mxPoint x="200" y="40" as="targetPoint" />
          </mxGeometry>
        </mxCell>
        <mxCell id="ZdzDDIdJYCtwSN7JUISU-172" value="" style="ellipse;whiteSpace=wrap;html=1;" vertex="1" parent="ZdzDDIdJYCtwSN7JUISU-159">
          <mxGeometry x="210" y="20" width="30" height="20" as="geometry" />
        </mxCell>
        <mxCell id="ZdzDDIdJYCtwSN7JUISU-173" value="" style="ellipse;whiteSpace=wrap;html=1;aspect=fixed;" vertex="1" parent="ZdzDDIdJYCtwSN7JUISU-159">
          <mxGeometry x="230" y="20" width="10" height="10" as="geometry" />
        </mxCell>
        <mxCell id="ZdzDDIdJYCtwSN7JUISU-174" value="" style="curved=1;endArrow=classic;html=1;rounded=0;exitX=0;exitY=1;exitDx=0;exitDy=0;" edge="1" parent="ZdzDDIdJYCtwSN7JUISU-159" source="ZdzDDIdJYCtwSN7JUISU-172">
          <mxGeometry width="50" height="50" relative="1" as="geometry">
            <mxPoint x="180" y="40" as="sourcePoint" />
            <mxPoint x="210" y="10" as="targetPoint" />
            <Array as="points">
              <mxPoint x="200" y="37" />
              <mxPoint x="200" y="30" />
              <mxPoint x="200" y="20" />
            </Array>
          </mxGeometry>
        </mxCell>
        <mxCell id="ZdzDDIdJYCtwSN7JUISU-180" value="100%" style="text;whiteSpace=wrap;html=1;" vertex="1" parent="1">
          <mxGeometry x="260" y="620" width="60" height="40" as="geometry" />
        </mxCell>
      </root>
    </mxGraphModel>
  </diagram>
</mxfile>
